<svg width="829" height="83" viewBox="0 0 829 83" fill="none" xmlns="http://www.w3.org/2000/svg">
<mask id="path-1-outside-1_231_3" maskUnits="userSpaceOnUse" x="0.610352" y="0.224121" width="828" height="82" fill="black">
<rect fill="white" x="0.610352" y="0.224121" width="828" height="82"/>
<path d="M26.4424 6.08812C33.7384 6.08812 40.0424 7.46412 45.3544 10.2161C50.7304 12.9041 54.8264 16.7761 57.6424 21.8321C60.5224 26.8881 61.9624 32.8401 61.9624 39.6881C61.9624 46.5361 60.5224 52.4881 57.6424 57.5441C54.8264 62.5361 50.7304 66.3761 45.3544 69.0641C40.0424 71.6881 33.7384 73.0001 26.4424 73.0001H5.61035V6.08812H26.4424ZM26.4424 65.8001C35.0824 65.8001 41.6744 63.5281 46.2184 58.9841C50.7624 54.3761 53.0344 47.9441 53.0344 39.6881C53.0344 31.3681 50.7304 24.8721 46.1224 20.2001C41.5784 15.5281 35.0184 13.1921 26.4424 13.1921H14.3464V65.8001H26.4424Z"/>
<path d="M123.597 58.1201H94.4134L89.0374 73.0001H79.8214L104.013 6.47212H114.093L138.189 73.0001H128.973L123.597 58.1201ZM121.101 51.0161L109.005 17.2241L96.9094 51.0161H121.101Z"/>
<path d="M200.477 6.08812V13.1921H182.237V73.0001H173.501V13.1921H155.165V6.08812H200.477Z"/>
<path d="M230.526 13.1921V35.5601H254.91V42.7601H230.526V65.8001H257.79V73.0001H221.79V5.99212H257.79V13.1921H230.526Z"/>
<path d="M401.819 6.08812L382.427 73.0001H372.635L357.083 19.1441L340.955 73.0001L331.259 73.0961L312.539 6.08812H321.851L336.443 62.8241L352.571 6.08812H362.363L377.723 62.6321L392.411 6.08812H401.819Z"/>
<path d="M430.675 6.08812V73.0001H421.939V6.08812H430.675Z"/>
<path d="M497.308 6.08812V13.1921H479.068V73.0001H470.332V13.1921H451.996V6.08812H497.308Z"/>
<path d="M570.174 6.08812V73.0001H561.438V42.6641H527.358V73.0001H518.622V6.08812H527.358V35.4641H561.438V6.08812H570.174Z"/>
<path d="M699.676 6.56812V73.0001H690.94V23.4641L668.86 73.0001H662.716L640.54 23.3681V73.0001H631.804V6.56812H641.212L665.788 61.4801L690.364 6.56812H699.676Z"/>
<path d="M733.788 13.1921V35.5601H758.172V42.7601H733.788V65.8001H761.052V73.0001H725.052V5.99212H761.052V13.1921H733.788Z"/>
<path d="M801.918 5.22412C808.254 5.22412 813.374 7.01612 817.278 10.6001C821.182 14.1841 823.134 18.9841 823.134 25.0001C823.134 31.7201 821.054 36.7121 816.894 39.9761C812.734 43.1761 807.102 44.7761 799.998 44.7761L799.71 53.8961H792.126L791.742 38.7281H794.526C800.862 38.7281 805.822 37.7681 809.406 35.8481C812.99 33.9281 814.782 30.3121 814.782 25.0001C814.782 21.1601 813.63 18.1201 811.326 15.8801C809.022 13.6401 805.918 12.5201 802.014 12.5201C798.046 12.5201 794.91 13.6081 792.606 15.7841C790.366 17.8961 789.246 20.8081 789.246 24.5201H780.99C780.99 20.6801 781.854 17.3201 783.582 14.4401C785.31 11.4961 787.742 9.22412 790.878 7.62411C794.078 6.02412 797.758 5.22412 801.918 5.22412ZM795.87 73.5761C794.206 73.5761 792.798 73.0001 791.646 71.8481C790.494 70.6961 789.918 69.2881 789.918 67.6241C789.918 65.9601 790.494 64.5521 791.646 63.4001C792.798 62.2481 794.206 61.6721 795.87 61.6721C797.47 61.6721 798.814 62.2481 799.902 63.4001C801.054 64.5521 801.63 65.9601 801.63 67.6241C801.63 69.2881 801.054 70.6961 799.902 71.8481C798.814 73.0001 797.47 73.5761 795.87 73.5761Z"/>
</mask>
<path d="M26.4424 6.08812C33.7384 6.08812 40.0424 7.46412 45.3544 10.2161C50.7304 12.9041 54.8264 16.7761 57.6424 21.8321C60.5224 26.8881 61.9624 32.8401 61.9624 39.6881C61.9624 46.5361 60.5224 52.4881 57.6424 57.5441C54.8264 62.5361 50.7304 66.3761 45.3544 69.0641C40.0424 71.6881 33.7384 73.0001 26.4424 73.0001H5.61035V6.08812H26.4424ZM26.4424 65.8001C35.0824 65.8001 41.6744 63.5281 46.2184 58.9841C50.7624 54.3761 53.0344 47.9441 53.0344 39.6881C53.0344 31.3681 50.7304 24.8721 46.1224 20.2001C41.5784 15.5281 35.0184 13.1921 26.4424 13.1921H14.3464V65.8001H26.4424Z" stroke="white" stroke-width="10" mask="url(#path-1-outside-1_231_3)"/>
<path d="M123.597 58.1201H94.4134L89.0374 73.0001H79.8214L104.013 6.47212H114.093L138.189 73.0001H128.973L123.597 58.1201ZM121.101 51.0161L109.005 17.2241L96.9094 51.0161H121.101Z" stroke="white" stroke-width="10" mask="url(#path-1-outside-1_231_3)"/>
<path d="M200.477 6.08812V13.1921H182.237V73.0001H173.501V13.1921H155.165V6.08812H200.477Z" stroke="white" stroke-width="10" mask="url(#path-1-outside-1_231_3)"/>
<path d="M230.526 13.1921V35.5601H254.91V42.7601H230.526V65.8001H257.79V73.0001H221.79V5.99212H257.79V13.1921H230.526Z" stroke="white" stroke-width="10" mask="url(#path-1-outside-1_231_3)"/>
<path d="M401.819 6.08812L382.427 73.0001H372.635L357.083 19.1441L340.955 73.0001L331.259 73.0961L312.539 6.08812H321.851L336.443 62.8241L352.571 6.08812H362.363L377.723 62.6321L392.411 6.08812H401.819Z" stroke="white" stroke-width="10" mask="url(#path-1-outside-1_231_3)"/>
<path d="M430.675 6.08812V73.0001H421.939V6.08812H430.675Z" stroke="white" stroke-width="10" mask="url(#path-1-outside-1_231_3)"/>
<path d="M497.308 6.08812V13.1921H479.068V73.0001H470.332V13.1921H451.996V6.08812H497.308Z" stroke="white" stroke-width="10" mask="url(#path-1-outside-1_231_3)"/>
<path d="M570.174 6.08812V73.0001H561.438V42.6641H527.358V73.0001H518.622V6.08812H527.358V35.4641H561.438V6.08812H570.174Z" stroke="white" stroke-width="10" mask="url(#path-1-outside-1_231_3)"/>
<path d="M699.676 6.56812V73.0001H690.94V23.4641L668.86 73.0001H662.716L640.54 23.3681V73.0001H631.804V6.56812H641.212L665.788 61.4801L690.364 6.56812H699.676Z" stroke="white" stroke-width="10" mask="url(#path-1-outside-1_231_3)"/>
<path d="M733.788 13.1921V35.5601H758.172V42.7601H733.788V65.8001H761.052V73.0001H725.052V5.99212H761.052V13.1921H733.788Z" stroke="white" stroke-width="10" mask="url(#path-1-outside-1_231_3)"/>
<path d="M801.918 5.22412C808.254 5.22412 813.374 7.01612 817.278 10.6001C821.182 14.1841 823.134 18.9841 823.134 25.0001C823.134 31.7201 821.054 36.7121 816.894 39.9761C812.734 43.1761 807.102 44.7761 799.998 44.7761L799.71 53.8961H792.126L791.742 38.7281H794.526C800.862 38.7281 805.822 37.7681 809.406 35.8481C812.99 33.9281 814.782 30.3121 814.782 25.0001C814.782 21.1601 813.63 18.1201 811.326 15.8801C809.022 13.6401 805.918 12.5201 802.014 12.5201C798.046 12.5201 794.91 13.6081 792.606 15.7841C790.366 17.8961 789.246 20.8081 789.246 24.5201H780.99C780.99 20.6801 781.854 17.3201 783.582 14.4401C785.31 11.4961 787.742 9.22412 790.878 7.62411C794.078 6.02412 797.758 5.22412 801.918 5.22412ZM795.87 73.5761C794.206 73.5761 792.798 73.0001 791.646 71.8481C790.494 70.6961 789.918 69.2881 789.918 67.6241C789.918 65.9601 790.494 64.5521 791.646 63.4001C792.798 62.2481 794.206 61.6721 795.87 61.6721C797.47 61.6721 798.814 62.2481 799.902 63.4001C801.054 64.5521 801.63 65.9601 801.63 67.6241C801.63 69.2881 801.054 70.6961 799.902 71.8481C798.814 73.0001 797.47 73.5761 795.87 73.5761Z" stroke="white" stroke-width="10" mask="url(#path-1-outside-1_231_3)"/>
</svg>
